<mxfile host="app.diagrams.net" agent="Mozilla/5.0 (Windows NT 10.0; Win64; x64) AppleWebKit/537.36 (KHTML, like Gecko) Chrome/128.0.0.0 Safari/537.36" version="24.7.14">
  <diagram name="Page-1" id="v38kLTMo5lZpZigEfUd8">
    <mxGraphModel dx="2049" dy="1054" grid="1" gridSize="10" guides="1" tooltips="1" connect="1" arrows="1" fold="1" page="1" pageScale="1" pageWidth="850" pageHeight="1100" math="0" shadow="0">
      <root>
        <mxCell id="0" />
        <mxCell id="1" parent="0" />
        <mxCell id="0TPqU3k4yadK3zRaucGI-1" value="start" style="rounded=1;whiteSpace=wrap;html=1;strokeColor=default;align=center;verticalAlign=middle;fontFamily=source code pro;fontSource=https%3A%2F%2Ffonts.googleapis.com%2Fcss%3Ffamily%3Dsource%2Bcode%2Bpro;fontSize=12;fontColor=default;fillColor=default;" vertex="1" parent="1">
          <mxGeometry x="120" y="40" width="60" height="20" as="geometry" />
        </mxCell>
        <mxCell id="0TPqU3k4yadK3zRaucGI-2" value="switch statement" style="rounded=0;whiteSpace=wrap;html=1;strokeColor=default;align=center;verticalAlign=middle;fontFamily=source code pro;fontSource=https%3A%2F%2Ffonts.googleapis.com%2Fcss%3Ffamily%3Dsource%2Bcode%2Bpro;fontSize=12;fontColor=default;fillColor=default;" vertex="1" parent="1">
          <mxGeometry x="90" y="220" width="120" height="20" as="geometry" />
        </mxCell>
        <mxCell id="0TPqU3k4yadK3zRaucGI-3" value="case 1:&lt;div&gt;userGPA &amp;gt;= A_Grade&lt;/div&gt;" style="rhombus;whiteSpace=wrap;html=1;strokeColor=default;align=center;verticalAlign=middle;fontFamily=source code pro;fontSource=https%3A%2F%2Ffonts.googleapis.com%2Fcss%3Ffamily%3Dsource%2Bcode%2Bpro;fontSize=12;fontColor=default;fillColor=default;" vertex="1" parent="1">
          <mxGeometry x="90" y="260" width="120" height="80" as="geometry" />
        </mxCell>
        <mxCell id="0TPqU3k4yadK3zRaucGI-4" value="case 2:&lt;div&gt;userGPA &amp;gt;= B_Grade&lt;br&gt;&lt;/div&gt;" style="rhombus;whiteSpace=wrap;html=1;strokeColor=default;align=center;verticalAlign=middle;fontFamily=source code pro;fontSource=https%3A%2F%2Ffonts.googleapis.com%2Fcss%3Ffamily%3Dsource%2Bcode%2Bpro;fontSize=12;fontColor=default;fillColor=default;" vertex="1" parent="1">
          <mxGeometry x="90" y="360" width="120" height="80" as="geometry" />
        </mxCell>
        <mxCell id="0TPqU3k4yadK3zRaucGI-5" value="case 3:&lt;div&gt;userGPA &amp;gt;= C_Grade&lt;br&gt;&lt;/div&gt;" style="rhombus;whiteSpace=wrap;html=1;strokeColor=default;align=center;verticalAlign=middle;fontFamily=source code pro;fontSource=https%3A%2F%2Ffonts.googleapis.com%2Fcss%3Ffamily%3Dsource%2Bcode%2Bpro;fontSize=12;fontColor=default;fillColor=default;" vertex="1" parent="1">
          <mxGeometry x="90" y="460" width="120" height="80" as="geometry" />
        </mxCell>
        <mxCell id="0TPqU3k4yadK3zRaucGI-6" value="case 4:&lt;div&gt;userGPA &amp;gt;= D_Grade&lt;br&gt;&lt;/div&gt;" style="rhombus;whiteSpace=wrap;html=1;strokeColor=default;align=center;verticalAlign=middle;fontFamily=source code pro;fontSource=https%3A%2F%2Ffonts.googleapis.com%2Fcss%3Ffamily%3Dsource%2Bcode%2Bpro;fontSize=12;fontColor=default;fillColor=default;" vertex="1" parent="1">
          <mxGeometry x="90" y="560" width="120" height="80" as="geometry" />
        </mxCell>
        <mxCell id="0TPqU3k4yadK3zRaucGI-7" value="case 5:&lt;div&gt;userGPA &amp;gt;= F_Grade&lt;br&gt;&lt;/div&gt;" style="rhombus;whiteSpace=wrap;html=1;strokeColor=default;align=center;verticalAlign=middle;fontFamily=source code pro;fontSource=https%3A%2F%2Ffonts.googleapis.com%2Fcss%3Ffamily%3Dsource%2Bcode%2Bpro;fontSize=12;fontColor=default;fillColor=default;" vertex="1" parent="1">
          <mxGeometry x="90" y="660" width="120" height="80" as="geometry" />
        </mxCell>
        <mxCell id="0TPqU3k4yadK3zRaucGI-8" value="case 6:&lt;div&gt;userGPA&lt;br&gt;&lt;/div&gt;&lt;div&gt;is other&lt;/div&gt;" style="rhombus;whiteSpace=wrap;html=1;strokeColor=default;align=center;verticalAlign=middle;fontFamily=source code pro;fontSource=https%3A%2F%2Ffonts.googleapis.com%2Fcss%3Ffamily%3Dsource%2Bcode%2Bpro;fontSize=12;fontColor=default;fillColor=default;direction=south;" vertex="1" parent="1">
          <mxGeometry x="90" y="760" width="120" height="80" as="geometry" />
        </mxCell>
        <mxCell id="0TPqU3k4yadK3zRaucGI-16" value="" style="endArrow=classic;html=1;rounded=0;fontFamily=source code pro;fontSource=https%3A%2F%2Ffonts.googleapis.com%2Fcss%3Ffamily%3Dsource%2Bcode%2Bpro;fontSize=12;fontColor=default;" edge="1" parent="1">
          <mxGeometry width="50" height="50" relative="1" as="geometry">
            <mxPoint x="149.8" y="240" as="sourcePoint" />
            <mxPoint x="149.8" y="260" as="targetPoint" />
          </mxGeometry>
        </mxCell>
        <mxCell id="0TPqU3k4yadK3zRaucGI-17" value="" style="endArrow=classic;html=1;rounded=0;fontFamily=source code pro;fontSource=https%3A%2F%2Ffonts.googleapis.com%2Fcss%3Ffamily%3Dsource%2Bcode%2Bpro;fontSize=12;fontColor=default;" edge="1" parent="1">
          <mxGeometry width="50" height="50" relative="1" as="geometry">
            <mxPoint x="149.58" y="340" as="sourcePoint" />
            <mxPoint x="149.58" y="360" as="targetPoint" />
          </mxGeometry>
        </mxCell>
        <mxCell id="0TPqU3k4yadK3zRaucGI-18" value="" style="endArrow=classic;html=1;rounded=0;fontFamily=source code pro;fontSource=https%3A%2F%2Ffonts.googleapis.com%2Fcss%3Ffamily%3Dsource%2Bcode%2Bpro;fontSize=12;fontColor=default;" edge="1" parent="1">
          <mxGeometry width="50" height="50" relative="1" as="geometry">
            <mxPoint x="149.71" y="440" as="sourcePoint" />
            <mxPoint x="149.71" y="460" as="targetPoint" />
          </mxGeometry>
        </mxCell>
        <mxCell id="0TPqU3k4yadK3zRaucGI-20" value="" style="endArrow=classic;html=1;rounded=0;fontFamily=source code pro;fontSource=https%3A%2F%2Ffonts.googleapis.com%2Fcss%3Ffamily%3Dsource%2Bcode%2Bpro;fontSize=12;fontColor=default;" edge="1" parent="1">
          <mxGeometry width="50" height="50" relative="1" as="geometry">
            <mxPoint x="149.66000000000003" y="540" as="sourcePoint" />
            <mxPoint x="149.66000000000003" y="560" as="targetPoint" />
          </mxGeometry>
        </mxCell>
        <mxCell id="0TPqU3k4yadK3zRaucGI-21" value="" style="endArrow=classic;html=1;rounded=0;fontFamily=source code pro;fontSource=https%3A%2F%2Ffonts.googleapis.com%2Fcss%3Ffamily%3Dsource%2Bcode%2Bpro;fontSize=12;fontColor=default;" edge="1" parent="1">
          <mxGeometry width="50" height="50" relative="1" as="geometry">
            <mxPoint x="149.66000000000003" y="640" as="sourcePoint" />
            <mxPoint x="149.66000000000003" y="660" as="targetPoint" />
          </mxGeometry>
        </mxCell>
        <mxCell id="0TPqU3k4yadK3zRaucGI-22" value="" style="endArrow=classic;html=1;rounded=0;fontFamily=source code pro;fontSource=https%3A%2F%2Ffonts.googleapis.com%2Fcss%3Ffamily%3Dsource%2Bcode%2Bpro;fontSize=12;fontColor=default;entryX=0;entryY=0.5;entryDx=0;entryDy=0;" edge="1" parent="1" target="0TPqU3k4yadK3zRaucGI-40">
          <mxGeometry width="50" height="50" relative="1" as="geometry">
            <mxPoint x="210" y="299.8" as="sourcePoint" />
            <mxPoint x="230.2" y="299.8" as="targetPoint" />
          </mxGeometry>
        </mxCell>
        <mxCell id="0TPqU3k4yadK3zRaucGI-54" value="true" style="edgeLabel;html=1;align=center;verticalAlign=middle;resizable=0;points=[];strokeColor=default;fontFamily=source code pro;fontSource=https%3A%2F%2Ffonts.googleapis.com%2Fcss%3Ffamily%3Dsource%2Bcode%2Bpro;fontSize=12;fontColor=default;fillColor=default;" vertex="1" connectable="0" parent="0TPqU3k4yadK3zRaucGI-22">
          <mxGeometry x="-0.1418" y="1" relative="1" as="geometry">
            <mxPoint y="1" as="offset" />
          </mxGeometry>
        </mxCell>
        <mxCell id="0TPqU3k4yadK3zRaucGI-28" value="" style="endArrow=classic;html=1;rounded=0;fontFamily=source code pro;fontSource=https%3A%2F%2Ffonts.googleapis.com%2Fcss%3Ffamily%3Dsource%2Bcode%2Bpro;fontSize=12;fontColor=default;" edge="1" parent="1">
          <mxGeometry width="50" height="50" relative="1" as="geometry">
            <mxPoint x="149.66000000000003" y="740" as="sourcePoint" />
            <mxPoint x="149.66000000000003" y="760" as="targetPoint" />
          </mxGeometry>
        </mxCell>
        <mxCell id="0TPqU3k4yadK3zRaucGI-32" value="" style="endArrow=classic;html=1;rounded=0;fontFamily=source code pro;fontSource=https%3A%2F%2Ffonts.googleapis.com%2Fcss%3Ffamily%3Dsource%2Bcode%2Bpro;fontSize=12;fontColor=default;" edge="1" parent="1">
          <mxGeometry width="50" height="50" relative="1" as="geometry">
            <mxPoint x="390.4" y="300" as="sourcePoint" />
            <mxPoint x="410.6" y="300" as="targetPoint" />
          </mxGeometry>
        </mxCell>
        <mxCell id="0TPqU3k4yadK3zRaucGI-33" value="" style="endArrow=classic;html=1;rounded=0;fontFamily=source code pro;fontSource=https%3A%2F%2Ffonts.googleapis.com%2Fcss%3Ffamily%3Dsource%2Bcode%2Bpro;fontSize=12;fontColor=default;" edge="1" parent="1">
          <mxGeometry width="50" height="50" relative="1" as="geometry">
            <mxPoint x="390.4" y="400" as="sourcePoint" />
            <mxPoint x="410.6" y="400" as="targetPoint" />
          </mxGeometry>
        </mxCell>
        <mxCell id="0TPqU3k4yadK3zRaucGI-34" value="" style="endArrow=classic;html=1;rounded=0;fontFamily=source code pro;fontSource=https%3A%2F%2Ffonts.googleapis.com%2Fcss%3Ffamily%3Dsource%2Bcode%2Bpro;fontSize=12;fontColor=default;" edge="1" parent="1">
          <mxGeometry width="50" height="50" relative="1" as="geometry">
            <mxPoint x="390.4" y="500" as="sourcePoint" />
            <mxPoint x="410.6" y="500" as="targetPoint" />
          </mxGeometry>
        </mxCell>
        <mxCell id="0TPqU3k4yadK3zRaucGI-35" value="" style="endArrow=classic;html=1;rounded=0;fontFamily=source code pro;fontSource=https%3A%2F%2Ffonts.googleapis.com%2Fcss%3Ffamily%3Dsource%2Bcode%2Bpro;fontSize=12;fontColor=default;" edge="1" parent="1">
          <mxGeometry width="50" height="50" relative="1" as="geometry">
            <mxPoint x="390.4" y="600" as="sourcePoint" />
            <mxPoint x="410.6" y="600" as="targetPoint" />
          </mxGeometry>
        </mxCell>
        <mxCell id="0TPqU3k4yadK3zRaucGI-36" value="" style="endArrow=classic;html=1;rounded=0;fontFamily=source code pro;fontSource=https%3A%2F%2Ffonts.googleapis.com%2Fcss%3Ffamily%3Dsource%2Bcode%2Bpro;fontSize=12;fontColor=default;" edge="1" parent="1">
          <mxGeometry width="50" height="50" relative="1" as="geometry">
            <mxPoint x="390.40000000000003" y="700" as="sourcePoint" />
            <mxPoint x="410.59999999999997" y="700" as="targetPoint" />
          </mxGeometry>
        </mxCell>
        <mxCell id="0TPqU3k4yadK3zRaucGI-37" value="" style="endArrow=classic;html=1;rounded=0;fontFamily=source code pro;fontSource=https%3A%2F%2Ffonts.googleapis.com%2Fcss%3Ffamily%3Dsource%2Bcode%2Bpro;fontSize=12;fontColor=default;" edge="1" parent="1">
          <mxGeometry width="50" height="50" relative="1" as="geometry">
            <mxPoint x="390.40000000000003" y="800" as="sourcePoint" />
            <mxPoint x="410.59999999999997" y="800" as="targetPoint" />
          </mxGeometry>
        </mxCell>
        <mxCell id="0TPqU3k4yadK3zRaucGI-39" value="" style="endArrow=classic;html=1;rounded=0;fontFamily=source code pro;fontSource=https%3A%2F%2Ffonts.googleapis.com%2Fcss%3Ffamily%3Dsource%2Bcode%2Bpro;fontSize=12;fontColor=default;" edge="1" parent="1">
          <mxGeometry width="50" height="50" relative="1" as="geometry">
            <mxPoint x="410.2" y="300" as="sourcePoint" />
            <mxPoint x="410.2" y="850" as="targetPoint" />
          </mxGeometry>
        </mxCell>
        <mxCell id="0TPqU3k4yadK3zRaucGI-40" value="break;&lt;div&gt;display&lt;div&gt;&quot;Excellent&quot;&lt;/div&gt;&lt;/div&gt;" style="shape=parallelogram;perimeter=parallelogramPerimeter;whiteSpace=wrap;html=1;fixedSize=1;strokeColor=default;align=center;verticalAlign=middle;fontFamily=source code pro;fontSource=https%3A%2F%2Ffonts.googleapis.com%2Fcss%3Ffamily%3Dsource%2Bcode%2Bpro;fontSize=12;fontColor=default;fillColor=default;" vertex="1" parent="1">
          <mxGeometry x="260.2" y="270" width="140" height="60" as="geometry" />
        </mxCell>
        <mxCell id="0TPqU3k4yadK3zRaucGI-41" value="break;&lt;div&gt;display&lt;div&gt;&quot;Good&quot;&lt;/div&gt;&lt;/div&gt;" style="shape=parallelogram;perimeter=parallelogramPerimeter;whiteSpace=wrap;html=1;fixedSize=1;strokeColor=default;align=center;verticalAlign=middle;fontFamily=source code pro;fontSource=https%3A%2F%2Ffonts.googleapis.com%2Fcss%3Ffamily%3Dsource%2Bcode%2Bpro;fontSize=12;fontColor=default;fillColor=default;" vertex="1" parent="1">
          <mxGeometry x="260.2" y="370" width="140" height="60" as="geometry" />
        </mxCell>
        <mxCell id="0TPqU3k4yadK3zRaucGI-42" value="break;&lt;div&gt;display&lt;div&gt;&lt;span style=&quot;background-color: initial;&quot;&gt;&quot;Okay job&quot;&lt;/span&gt;&lt;/div&gt;&lt;/div&gt;" style="shape=parallelogram;perimeter=parallelogramPerimeter;whiteSpace=wrap;html=1;fixedSize=1;strokeColor=default;align=center;verticalAlign=middle;fontFamily=source code pro;fontSource=https%3A%2F%2Ffonts.googleapis.com%2Fcss%3Ffamily%3Dsource%2Bcode%2Bpro;fontSize=12;fontColor=default;fillColor=default;" vertex="1" parent="1">
          <mxGeometry x="260.2" y="470" width="140" height="60" as="geometry" />
        </mxCell>
        <mxCell id="0TPqU3k4yadK3zRaucGI-43" value="break;&lt;div&gt;display&lt;div&gt;&quot;Just managed&lt;/div&gt;&lt;div&gt;to pass&quot;&lt;/div&gt;&lt;/div&gt;" style="shape=parallelogram;perimeter=parallelogramPerimeter;whiteSpace=wrap;html=1;fixedSize=1;strokeColor=default;align=center;verticalAlign=middle;fontFamily=source code pro;fontSource=https%3A%2F%2Ffonts.googleapis.com%2Fcss%3Ffamily%3Dsource%2Bcode%2Bpro;fontSize=12;fontColor=default;fillColor=default;" vertex="1" parent="1">
          <mxGeometry x="260.2" y="570" width="140" height="60" as="geometry" />
        </mxCell>
        <mxCell id="0TPqU3k4yadK3zRaucGI-44" value="break;&lt;div&gt;display&lt;div&gt;&quot;Failed&quot;&lt;/div&gt;&lt;/div&gt;" style="shape=parallelogram;perimeter=parallelogramPerimeter;whiteSpace=wrap;html=1;fixedSize=1;strokeColor=default;align=center;verticalAlign=middle;fontFamily=source code pro;fontSource=https%3A%2F%2Ffonts.googleapis.com%2Fcss%3Ffamily%3Dsource%2Bcode%2Bpro;fontSize=12;fontColor=default;fillColor=default;" vertex="1" parent="1">
          <mxGeometry x="260.4" y="670" width="140" height="60" as="geometry" />
        </mxCell>
        <mxCell id="0TPqU3k4yadK3zRaucGI-45" value="display&amp;nbsp;&lt;div&gt;&quot;Invalid Grade&quot;&lt;/div&gt;" style="shape=parallelogram;perimeter=parallelogramPerimeter;whiteSpace=wrap;html=1;fixedSize=1;strokeColor=default;align=center;verticalAlign=middle;fontFamily=source code pro;fontSource=https%3A%2F%2Ffonts.googleapis.com%2Fcss%3Ffamily%3Dsource%2Bcode%2Bpro;fontSize=12;fontColor=default;fillColor=default;" vertex="1" parent="1">
          <mxGeometry x="259.99999999999994" y="770" width="140" height="60" as="geometry" />
        </mxCell>
        <mxCell id="0TPqU3k4yadK3zRaucGI-46" value="end" style="rounded=1;whiteSpace=wrap;html=1;strokeColor=default;align=center;verticalAlign=middle;fontFamily=source code pro;fontSource=https%3A%2F%2Ffonts.googleapis.com%2Fcss%3Ffamily%3Dsource%2Bcode%2Bpro;fontSize=12;fontColor=default;fillColor=default;" vertex="1" parent="1">
          <mxGeometry x="390.20000000000005" y="850" width="40" height="20" as="geometry" />
        </mxCell>
        <mxCell id="0TPqU3k4yadK3zRaucGI-47" value="prompt user to&lt;div&gt;enter their letter grade&lt;/div&gt;" style="shape=parallelogram;perimeter=parallelogramPerimeter;whiteSpace=wrap;html=1;fixedSize=1;strokeColor=default;align=center;verticalAlign=middle;fontFamily=source code pro;fontSource=https%3A%2F%2Ffonts.googleapis.com%2Fcss%3Ffamily%3Dsource%2Bcode%2Bpro;fontSize=12;fontColor=default;fillColor=default;" vertex="1" parent="1">
          <mxGeometry x="70" y="80" width="160" height="60" as="geometry" />
        </mxCell>
        <mxCell id="0TPqU3k4yadK3zRaucGI-48" value="" style="endArrow=classic;html=1;rounded=0;fontFamily=source code pro;fontSource=https%3A%2F%2Ffonts.googleapis.com%2Fcss%3Ffamily%3Dsource%2Bcode%2Bpro;fontSize=12;fontColor=default;" edge="1" parent="1">
          <mxGeometry width="50" height="50" relative="1" as="geometry">
            <mxPoint x="149.71" y="140" as="sourcePoint" />
            <mxPoint x="149.71" y="160" as="targetPoint" />
          </mxGeometry>
        </mxCell>
        <mxCell id="0TPqU3k4yadK3zRaucGI-49" value="read input and assign the value to userGPA" style="shape=parallelogram;perimeter=parallelogramPerimeter;whiteSpace=wrap;html=1;fixedSize=1;strokeColor=default;align=center;verticalAlign=middle;fontFamily=source code pro;fontSource=https%3A%2F%2Ffonts.googleapis.com%2Fcss%3Ffamily%3Dsource%2Bcode%2Bpro;fontSize=12;fontColor=default;fillColor=default;" vertex="1" parent="1">
          <mxGeometry x="40" y="160" width="220" height="40" as="geometry" />
        </mxCell>
        <mxCell id="0TPqU3k4yadK3zRaucGI-51" value="" style="endArrow=classic;html=1;rounded=0;fontFamily=source code pro;fontSource=https%3A%2F%2Ffonts.googleapis.com%2Fcss%3Ffamily%3Dsource%2Bcode%2Bpro;fontSize=12;fontColor=default;" edge="1" parent="1">
          <mxGeometry width="50" height="50" relative="1" as="geometry">
            <mxPoint x="149.52" y="60" as="sourcePoint" />
            <mxPoint x="149.52" y="80" as="targetPoint" />
          </mxGeometry>
        </mxCell>
        <mxCell id="0TPqU3k4yadK3zRaucGI-52" value="" style="endArrow=classic;html=1;rounded=0;fontFamily=source code pro;fontSource=https%3A%2F%2Ffonts.googleapis.com%2Fcss%3Ffamily%3Dsource%2Bcode%2Bpro;fontSize=12;fontColor=default;" edge="1" parent="1">
          <mxGeometry width="50" height="50" relative="1" as="geometry">
            <mxPoint x="149.52" y="200" as="sourcePoint" />
            <mxPoint x="149.52" y="220" as="targetPoint" />
          </mxGeometry>
        </mxCell>
        <mxCell id="0TPqU3k4yadK3zRaucGI-57" value="" style="endArrow=classic;html=1;rounded=0;fontFamily=source code pro;fontSource=https%3A%2F%2Ffonts.googleapis.com%2Fcss%3Ffamily%3Dsource%2Bcode%2Bpro;fontSize=12;fontColor=default;entryX=0;entryY=0.5;entryDx=0;entryDy=0;" edge="1" parent="1">
          <mxGeometry width="50" height="50" relative="1" as="geometry">
            <mxPoint x="210" y="399.58000000000004" as="sourcePoint" />
            <mxPoint x="270" y="399.78" as="targetPoint" />
          </mxGeometry>
        </mxCell>
        <mxCell id="0TPqU3k4yadK3zRaucGI-58" value="true" style="edgeLabel;html=1;align=center;verticalAlign=middle;resizable=0;points=[];strokeColor=default;fontFamily=source code pro;fontSource=https%3A%2F%2Ffonts.googleapis.com%2Fcss%3Ffamily%3Dsource%2Bcode%2Bpro;fontSize=12;fontColor=default;fillColor=default;" vertex="1" connectable="0" parent="0TPqU3k4yadK3zRaucGI-57">
          <mxGeometry x="-0.1418" y="1" relative="1" as="geometry">
            <mxPoint y="1" as="offset" />
          </mxGeometry>
        </mxCell>
        <mxCell id="0TPqU3k4yadK3zRaucGI-59" value="" style="endArrow=classic;html=1;rounded=0;fontFamily=source code pro;fontSource=https%3A%2F%2Ffonts.googleapis.com%2Fcss%3Ffamily%3Dsource%2Bcode%2Bpro;fontSize=12;fontColor=default;entryX=0;entryY=0.5;entryDx=0;entryDy=0;" edge="1" parent="1">
          <mxGeometry width="50" height="50" relative="1" as="geometry">
            <mxPoint x="210" y="499.58000000000004" as="sourcePoint" />
            <mxPoint x="270" y="499.78" as="targetPoint" />
          </mxGeometry>
        </mxCell>
        <mxCell id="0TPqU3k4yadK3zRaucGI-60" value="true" style="edgeLabel;html=1;align=center;verticalAlign=middle;resizable=0;points=[];strokeColor=default;fontFamily=source code pro;fontSource=https%3A%2F%2Ffonts.googleapis.com%2Fcss%3Ffamily%3Dsource%2Bcode%2Bpro;fontSize=12;fontColor=default;fillColor=default;" vertex="1" connectable="0" parent="0TPqU3k4yadK3zRaucGI-59">
          <mxGeometry x="-0.1418" y="1" relative="1" as="geometry">
            <mxPoint y="1" as="offset" />
          </mxGeometry>
        </mxCell>
        <mxCell id="0TPqU3k4yadK3zRaucGI-61" value="" style="endArrow=classic;html=1;rounded=0;fontFamily=source code pro;fontSource=https%3A%2F%2Ffonts.googleapis.com%2Fcss%3Ffamily%3Dsource%2Bcode%2Bpro;fontSize=12;fontColor=default;entryX=0;entryY=0.5;entryDx=0;entryDy=0;" edge="1" parent="1">
          <mxGeometry width="50" height="50" relative="1" as="geometry">
            <mxPoint x="210" y="599.58" as="sourcePoint" />
            <mxPoint x="270" y="599.78" as="targetPoint" />
          </mxGeometry>
        </mxCell>
        <mxCell id="0TPqU3k4yadK3zRaucGI-62" value="true" style="edgeLabel;html=1;align=center;verticalAlign=middle;resizable=0;points=[];strokeColor=default;fontFamily=source code pro;fontSource=https%3A%2F%2Ffonts.googleapis.com%2Fcss%3Ffamily%3Dsource%2Bcode%2Bpro;fontSize=12;fontColor=default;fillColor=default;" vertex="1" connectable="0" parent="0TPqU3k4yadK3zRaucGI-61">
          <mxGeometry x="-0.1418" y="1" relative="1" as="geometry">
            <mxPoint y="1" as="offset" />
          </mxGeometry>
        </mxCell>
        <mxCell id="0TPqU3k4yadK3zRaucGI-63" value="" style="endArrow=classic;html=1;rounded=0;fontFamily=source code pro;fontSource=https%3A%2F%2Ffonts.googleapis.com%2Fcss%3Ffamily%3Dsource%2Bcode%2Bpro;fontSize=12;fontColor=default;entryX=0;entryY=0.5;entryDx=0;entryDy=0;" edge="1" parent="1">
          <mxGeometry width="50" height="50" relative="1" as="geometry">
            <mxPoint x="210" y="699.58" as="sourcePoint" />
            <mxPoint x="270" y="699.78" as="targetPoint" />
          </mxGeometry>
        </mxCell>
        <mxCell id="0TPqU3k4yadK3zRaucGI-64" value="true" style="edgeLabel;html=1;align=center;verticalAlign=middle;resizable=0;points=[];strokeColor=default;fontFamily=source code pro;fontSource=https%3A%2F%2Ffonts.googleapis.com%2Fcss%3Ffamily%3Dsource%2Bcode%2Bpro;fontSize=12;fontColor=default;fillColor=default;" vertex="1" connectable="0" parent="0TPqU3k4yadK3zRaucGI-63">
          <mxGeometry x="-0.1418" y="1" relative="1" as="geometry">
            <mxPoint y="1" as="offset" />
          </mxGeometry>
        </mxCell>
        <mxCell id="0TPqU3k4yadK3zRaucGI-65" value="" style="endArrow=classic;html=1;rounded=0;fontFamily=source code pro;fontSource=https%3A%2F%2Ffonts.googleapis.com%2Fcss%3Ffamily%3Dsource%2Bcode%2Bpro;fontSize=12;fontColor=default;entryX=0;entryY=0.5;entryDx=0;entryDy=0;" edge="1" parent="1">
          <mxGeometry width="50" height="50" relative="1" as="geometry">
            <mxPoint x="210" y="799.58" as="sourcePoint" />
            <mxPoint x="270" y="799.78" as="targetPoint" />
          </mxGeometry>
        </mxCell>
        <mxCell id="0TPqU3k4yadK3zRaucGI-66" value="true" style="edgeLabel;html=1;align=center;verticalAlign=middle;resizable=0;points=[];strokeColor=default;fontFamily=source code pro;fontSource=https%3A%2F%2Ffonts.googleapis.com%2Fcss%3Ffamily%3Dsource%2Bcode%2Bpro;fontSize=12;fontColor=default;fillColor=default;" vertex="1" connectable="0" parent="0TPqU3k4yadK3zRaucGI-65">
          <mxGeometry x="-0.1418" y="1" relative="1" as="geometry">
            <mxPoint y="1" as="offset" />
          </mxGeometry>
        </mxCell>
      </root>
    </mxGraphModel>
  </diagram>
</mxfile>
